<svg width="13" height="13" viewBox="0 0 13 13" fill="none" xmlns="http://www.w3.org/2000/svg">
<g id="SVG" clip-path="url(#clip0_13_8899)">
<path id="Vector" d="M8.4804 5.79844L5.94915 5.05781C5.65618 4.97344 5.45227 4.69922 5.45227 4.39453C5.45227 4.0125 5.76165 3.70312 6.14368 3.70312H7.69758C7.98352 3.70312 8.26477 3.78984 8.49915 3.94922C8.64211 4.04531 8.8343 4.02187 8.95618 3.90234L9.7718 3.10547C9.93821 2.94375 9.91477 2.67422 9.72961 2.53125C9.1554 2.08125 8.43821 1.83047 7.70227 1.82812V0.703125C7.70227 0.496875 7.53352 0.328125 7.32727 0.328125H6.57727C6.37102 0.328125 6.20227 0.496875 6.20227 0.703125V1.82812H6.14368C4.65071 1.82812 3.45071 3.11016 3.58899 4.63125C3.68743 5.71172 4.51243 6.59063 5.55305 6.89531L7.9554 7.59844C8.24836 7.68516 8.45227 7.95703 8.45227 8.26172C8.45227 8.64375 8.1429 8.95312 7.76086 8.95312H6.20696C5.92102 8.95312 5.63977 8.86641 5.4054 8.70703C5.26243 8.61094 5.07024 8.63437 4.94836 8.75391L4.13274 9.55078C3.96633 9.7125 3.98977 9.98203 4.17493 10.125C4.74915 10.575 5.46633 10.8258 6.20227 10.8281V11.9531C6.20227 12.1594 6.37102 12.3281 6.57727 12.3281H7.32727C7.53352 12.3281 7.70227 12.1594 7.70227 11.9531V10.8234C8.79446 10.8023 9.81868 10.1531 10.1796 9.11953C10.6835 7.67578 9.83743 6.19453 8.4804 5.79844Z" fill="black"/>
</g>
<defs>
<clipPath id="clip0_13_8899">
<rect width="12" height="12" fill="white" transform="translate(0.953125 0.328125)"/>
</clipPath>
</defs>
</svg>
