<svg width="13" height="13" viewBox="0 0 13 13" fill="none" xmlns="http://www.w3.org/2000/svg">
<g id="SVG" clip-path="url(#clip0_13_8901)">
<path id="Vector" d="M12.7884 5.00069L12.2581 4.47037C12.0384 4.25069 11.6822 4.25069 11.4626 4.47037L11.33 4.60295L8.67831 1.95131L8.81089 1.81872C9.03057 1.59904 9.03057 1.24288 8.81089 1.02323L8.28057 0.492885C8.06089 0.273205 7.70474 0.273205 7.48508 0.492885L4.56826 3.4097C4.34858 3.62938 4.34858 3.98554 4.56826 4.2052L5.09858 4.73552C5.31826 4.9552 5.67442 4.9552 5.89407 4.73552L6.02666 4.60293L6.95474 5.53101L5.05536 7.43038L4.92278 7.2978C4.62988 7.0049 4.15501 7.0049 3.86211 7.2978L1.1728 9.98716C0.8799 10.2801 0.8799 10.7549 1.1728 11.0478L2.23346 12.1085C2.52636 12.4014 3.00123 12.4014 3.29413 12.1085L5.98346 9.41915C6.27636 9.12625 6.27636 8.65139 5.98346 8.35849L5.85088 8.2259L7.75025 6.32653L8.67833 7.2546L8.54574 7.38719C8.32606 7.60687 8.32606 7.96303 8.54574 8.18268L9.07607 8.713C9.29574 8.93268 9.6519 8.93268 9.87156 8.713L12.7884 5.79618C13.008 5.57653 13.008 5.22037 12.7884 5.00069Z" fill="black"/>
</g>
<defs>
<clipPath id="clip0_13_8901">
<rect width="12" height="12" fill="white" transform="translate(0.953125 0.328125)"/>
</clipPath>
</defs>
</svg>
