<svg width="13" height="13" viewBox="0 0 13 13" fill="none" xmlns="http://www.w3.org/2000/svg">
<g id="SVG" clip-path="url(#clip0_13_8897)">
<path id="Vector" d="M12.6532 9.92813H1.25318C1.08743 9.92813 0.953178 10.0624 0.953178 10.2281V10.8281C0.953178 10.9939 1.08743 11.1281 1.25318 11.1281H12.6532C12.8189 11.1281 12.9532 10.9939 12.9532 10.8281V10.2281C12.9532 10.0624 12.8189 9.92813 12.6532 9.92813ZM2.46349 7.92694C2.58124 8.05519 2.74662 8.12794 2.91968 8.12775L5.3673 8.12438C5.56046 8.12412 5.75085 8.07838 5.92305 7.99088L11.3786 5.22244C11.8799 4.968 12.3294 4.60481 12.6352 4.12913C12.9785 3.59513 13.0158 3.20869 12.8802 2.93569C12.7451 2.6625 12.4164 2.46188 11.7881 2.421C11.2284 2.38463 10.6717 2.532 10.1703 2.78625L8.32324 3.72356L4.22262 2.18494C4.17331 2.15172 4.11603 2.13228 4.0567 2.12862C3.99736 2.12496 3.93813 2.13722 3.88512 2.16413L2.6523 2.78981C2.45224 2.89125 2.40387 3.15825 2.55537 3.32475L5.48449 5.16413L3.5493 6.14625L2.19274 5.46244C2.146 5.43887 2.09438 5.42663 2.04204 5.4267C1.9897 5.42676 1.93811 5.43913 1.89143 5.46281L1.13899 5.84475C0.943241 5.94413 0.891678 6.20325 1.03455 6.37125L2.46349 7.92694Z" fill="black"/>
</g>
<defs>
<clipPath id="clip0_13_8897">
<rect width="12" height="12" fill="white" transform="translate(0.953125 0.328125)"/>
</clipPath>
</defs>
</svg>
