<svg width="12" height="12" viewBox="0 0 12 12" fill="none" xmlns="http://www.w3.org/2000/svg">
<g id="SVG">
<path id="Vector" d="M7.5 0.5C7.77615 0.5 8 0.72386 8 1V3.5H8.5V3H9.5V3.5H10C10.2761 3.5 10.5 3.72386 10.5 4V10C10.5 10.2761 10.2761 10.5 10 10.5H9.5V11H8.5V10.5H3.5V11H2.5V10.5H2C1.72386 10.5 1.5 10.2761 1.5 10V4C1.5 3.72386 1.72386 3.5 2 3.5H2.5V3H3.5V3.5H4V1C4 0.72386 4.22386 0.5 4.5 0.5H7.5ZM9.5 4.5H2.5V9.5H9.5V4.5ZM4.5 5V9H3.5V5H4.5ZM6.5 5V9H5.5V5H6.5ZM8.5 5V9H7.5V5H8.5ZM7 1.5H5V3.5H7V1.5Z" fill="black"/>
</g>
</svg>
